<?xml version="1.0" encoding="iso-8859-1"?>
<!-- Generator: Adobe Illustrator 19.0.0, SVG Export Plug-In . SVG Version: 6.00 Build 0)  -->
<svg version="1.1" id="Layer_1" xmlns="http://www.w3.org/2000/svg" xmlns:xlink="http://www.w3.org/1999/xlink" x="0px" y="0px"
	 viewBox="0 0 512 512" style="enable-background:new 0 0 512 512;" xml:space="preserve">
<g>
	<g>
		<path d="M124.672,248.422c-18.283-17.344-91.392-22.933-113.365-24.235c-2.965,0-5.803,0.875-7.957,2.88
			C1.216,229.094,0,231.888,0,234.832v213.355c0,5.888,4.779,10.667,10.667,10.667h64c4.608,0,8.704-2.965,10.133-7.36
			c1.557-4.779,38.315-138.944,43.157-194.411C128.235,253.862,127.04,250.662,124.672,248.422z"/>
	</g>
</g>
<g>
	<g>
		<path d="M448,363.024l-74.667,31.872c-20.672,1.003-63.659-0.341-74.667-0.192c-10.837,0.149-66.24-17.621-57.557-21.141
			c1.813-0.747,6.443-0.896,14.891-0.192c48.725,4.053,128,13.867,128-21.333c0-35.2-85.909-42.667-106.667-42.667
			S221.781,290.747,192,288.038c-11.84-1.067-28.096-2.688-44.608-3.712c-6.741,45.867-26.389,112.341-36.501,144.853L224,480.336
			c42.325,16,71.104,36.437,160,0c0,0,128-54.336,128-85.333C512,369.382,482.667,351.014,448,363.024z"/>
	</g>
</g>
<g>
	<g>
		<path d="M426.368,202.064c-0.896,30.912-5.504,59.84-13.291,85.333h49.813c15.701-25.045,25.408-54.123,27.243-85.333H426.368z"/>
	</g>
</g>
<g>
	<g>
		<path d="M405.483,308.731c-2.624,6.464-5.525,12.523-8.555,18.411c3.84,5.248,6.421,11.243,7.509,18.005
			c16.085-9.984,30.677-22.08,42.901-36.416H405.483z"/>
	</g>
</g>
<g>
	<g>
		<path d="M375.083,22.587c11.925,13.717,22.187,31.232,30.4,51.477h41.856C428.032,51.387,403.264,33.616,375.083,22.587z"/>
	</g>
</g>
<g>
	<g>
		<path d="M462.891,95.398h-49.813c7.787,25.493,12.395,54.421,13.291,85.333h63.765
			C488.299,149.499,478.613,120.422,462.891,95.398z"/>
	</g>
</g>
<g>
	<g>
		<path d="M213.632,202.064c0.832,25.323,4.651,49.28,10.624,70.976c7.232,2.091,14.336,4.395,21.013,6.613
			c9.643,3.2,19.435,6.421,26.56,7.744h26.837v-85.333H213.632z"/>
	</g>
</g>
<g>
	<g>
		<path d="M228.501,95.398c-8.533,25.173-13.867,54.336-14.869,85.333h85.035V95.398H228.501z"/>
	</g>
</g>
<g>
	<g>
		<path d="M374.976,308.71c1.835,1.003,3.477,2.112,5.184,3.2c0.512-1.088,1.088-2.091,1.6-3.2H374.976z"/>
	</g>
</g>
<g>
	<g>
		<path d="M192.299,202.064h-63.765c0.512,8.619,1.728,17.024,3.392,25.259c2.88,1.792,5.355,3.669,7.424,5.632
			c7.125,6.677,10.731,16.213,9.856,26.069c-0.107,1.259-0.32,2.709-0.448,4.032c13.845,0.853,27.499,2.112,38.613,3.136
			l6.549,0.597c2.155,0.192,4.309,0.64,6.464,0.96C195.755,247.376,192.981,225.275,192.299,202.064z"/>
	</g>
</g>
<g>
	<g>
		<path d="M320,11.302v62.741h61.76C366.251,40.08,344.363,16.678,320,11.302z"/>
	</g>
</g>
<g>
	<g>
		<path d="M236.907,74.043h61.76V11.302C274.304,16.656,252.416,40.08,236.907,74.043z"/>
	</g>
</g>
<g>
	<g>
		<path d="M155.776,95.398c-15.701,25.024-25.408,54.101-27.243,85.333h63.765c0.896-30.912,5.504-59.84,13.291-85.333H155.776z"/>
	</g>
</g>
<g>
	<g>
		<path d="M171.328,74.064h41.856c8.213-20.267,18.475-37.76,30.4-51.477C215.403,33.595,190.635,51.387,171.328,74.064z"/>
	</g>
</g>
<g>
	<g>
		<path d="M320,202.064v85.333h70.165c8.533-25.195,13.867-54.336,14.869-85.333H320z"/>
	</g>
</g>
<g>
	<g>
		<path d="M390.165,95.398H320v85.333h85.035C404.032,149.712,398.699,120.571,390.165,95.398z"/>
	</g>
</g>
<g>
</g>
<g>
</g>
<g>
</g>
<g>
</g>
<g>
</g>
<g>
</g>
<g>
</g>
<g>
</g>
<g>
</g>
<g>
</g>
<g>
</g>
<g>
</g>
<g>
</g>
<g>
</g>
<g>
</g>
</svg>
