<?xml version="1.0" encoding="utf-8"?>
<!-- Generator: Adobe Illustrator 21.1.0, SVG Export Plug-In . SVG Version: 6.00 Build 0)  -->
<svg version="1.1" id="Layer_1" xmlns="http://www.w3.org/2000/svg" xmlns:xlink="http://www.w3.org/1999/xlink" x="0px" y="0px"
	 viewBox="0 0 128 128" style="enable-background:new 0 0 128 128;" xml:space="preserve">
<g>
	<g>
		<path d="M71.4,26.5c-0.4-4.1-3.2-7-6.8-7c-2.4,0-4.6,1.3-5.8,3.4c-1.2-2.1-3.3-3.4-5.7-3.4c-3.6,0-6.5,2.9-6.8,7
			c0,0.2-0.1,1.1,0.2,2.7c0.5,2.2,1.7,4.2,3.5,5.8l8.8,8l8.9-8c1.8-1.6,3-3.6,3.5-5.8C71.6,27.7,71.5,26.7,71.4,26.5z M70.3,29
			c-0.5,2-1.6,3.9-3.2,5.3l-8.3,7.4l-8.1-7.4C49,32.8,47.9,31,47.4,29c-0.3-1.5-0.2-2.3-0.2-2.3l0,0c0.3-3.6,2.8-6.1,5.9-6.1
			c2.3,0,4.3,1.4,5.2,3.6l0.4,1.1l0.4-1.1c0.9-2.2,3-3.6,5.4-3.6c3.1,0,5.5,2.6,5.9,6.2C70.5,26.7,70.6,27.5,70.3,29z"/>
		<path d="M54,22.5c-2.7,0-4.9,2.2-4.9,4.9c0,0.3,0.2,0.5,0.5,0.5c0.3,0,0.5-0.2,0.5-0.5c0-2.1,1.7-3.9,3.9-3.9
			c0.3,0,0.5-0.2,0.5-0.5C54.5,22.7,54.3,22.5,54,22.5z"/>
	</g>
	<g>
	</g>
	<g>
	</g>
	<g>
	</g>
	<g>
	</g>
	<g>
	</g>
	<g>
	</g>
	<g>
	</g>
	<g>
	</g>
	<g>
	</g>
	<g>
	</g>
	<g>
	</g>
	<g>
	</g>
	<g>
	</g>
	<g>
	</g>
	<g>
	</g>
</g>
<g>
	<g>
		<g>
			<path d="M103.3,67.8c-1,0-1.7,0.8-1.7,1.7c0,1.2-1,2.2-2.2,2.2c-1.2,0-2.2-1-2.2-2.2c0-1-0.8-1.7-1.7-1.7c-1,0-1.7,0.8-1.7,1.7
				c0,3.1,2.5,5.6,5.6,5.6c3.1,0,5.6-2.5,5.6-5.6C105,68.6,104.2,67.8,103.3,67.8z"/>
		</g>
	</g>
	<g>
		<g>
			<path d="M119.4,68.1l-4.9-1.6c-0.6-0.2-1.1-0.7-1.3-1.3c-1-3.3-2.6-6.3-4.6-9.1c-0.9-1.3-1.9-2.5-3.1-3.6
				c0.7-3.1,1.1-6.7,1.1-9.8c-0.1-4.4-1-7-2.7-7.9c-0.9-0.5-3.8-2-19.2,5.1c-0.4,0.2-0.7,0.4-1,0.6c-1-0.3-2.1-0.5-3.2-0.8
				c-0.1,0-0.3-0.1-0.4-0.1c1.2-2.7,2-5.7,2.1-8.7c0-1-0.7-1.8-1.6-1.8c-0.9,0-1.8,0.7-1.8,1.6c-0.2,5-2.3,9.7-5.9,13.3
				c-2.1,2.1-4.6,3.7-7.3,4.6c-4.6-0.6-9.3-0.6-13.9,0c-2.7-1-5.1-2.5-7.3-4.6c-3.8-3.8-5.9-8.8-5.9-14.2c0-5.4,2.1-10.4,5.9-14.2
				c3.8-3.8,8.8-5.9,14.2-5.9s10.4,2.1,14.2,5.9c1.5,1.5,2.8,3.3,3.7,5.2c0.4,0.9,1.5,1.2,2.3,0.8c0.9-0.4,1.2-1.5,0.8-2.3
				c-1.1-2.2-2.6-4.3-4.4-6.1C71,8.8,65.1,6.3,58.8,6.3s-12.2,2.4-16.6,6.9c-4.4,4.4-6.9,10.4-6.9,16.6s2.4,12.2,6.9,16.6
				c1.3,1.3,2.7,2.4,4.2,3.3c0,0,0,0,0,0c-1.1,0.3-2.1,0.6-3.2,0.9c-0.9,0.3-1.4,1.3-1.1,2.2c0.3,0.9,1.3,1.4,2.2,1.1
				c9.4-3.1,19.8-3.1,29.2,0c0.2,0.1,0.4,0.1,0.5,0.1c0.7,0,1.4-0.5,1.6-1.2c0.3-0.9-0.2-1.9-1.1-2.2c-1.1-0.4-2.1-0.7-3.2-0.9
				c0,0,0,0,0,0c1.5-0.9,2.9-2,4.2-3.3c1.1-1.1,2.1-2.4,3-3.7c0.5,0.1,0.9,0.2,1.4,0.3c0.6,0.1,1.2,0.3,1.8,0.4c0,0.1,0,0.1-0.1,0.2
				c-0.8,4-0.8,7.5,0.2,10.5c0.9,2.7,2.4,4.8,4.6,6.4c2.6,1.9,5.7,2.7,8.5,2.7c2.1,0,4.1-0.5,5.5-1.3c1.6-0.9,3-2.9,4.1-5.8
				c0.5,0.6,1,1.2,1.4,1.8c1.8,2.5,3.2,5.2,4.1,8.1c0.5,1.7,1.9,3,3.5,3.6l4.9,1.6c1.3,0.4,2.1,1.6,2.1,2.9v8.1
				c0,1.3-0.9,2.5-2.1,2.9l-7.8,2.5c-1.3,0.4-2.3,1.3-3,2.4c-3.1,5.3-7.9,9.7-14.4,13.1c-0.7,0.4-1.3,1.1-1.4,1.9l-2.5,13.3
				c-0.1,0.4-0.8,0.5-0.8,0.5h-8.3c-0.4,0-0.7-0.3-0.8-0.6l-1.4-7.3c-0.3-1.4-1.6-2.4-3.1-2.2c-3.5,0.5-7.1,0.8-10.7,0.8
				c-2.7,0-5.3-0.2-7.9-0.4c-1.4-0.2-2.7,0.8-3,2.2l-1.3,7c-0.1,0.4-0.4,0.6-0.8,0.6h-8.1c-0.4,0-0.7-0.3-0.8-0.6l-2.4-12.5
				c-0.2-0.8-0.7-1.5-1.4-1.9c-11-5.9-16.8-15.7-16.8-28.4c0-6.4,1.4-12.1,4.2-16.9c2.6-4.5,6.3-8.1,11.2-10.9
				c0.8-0.5,1.1-1.5,0.6-2.4c-0.5-0.8-1.5-1.1-2.4-0.6c-9.4,5.4-15.1,13.9-16.6,24.5v0c-0.2,0-0.3,0-0.5,0c0-1.2-0.2-2.3-0.6-3.4
				c-1-2.5-3-4.3-5.2-4.6c-1.7-0.2-3.3,0.5-4.5,2c-1.6,2.2-1.4,3.9-0.9,5c0.9,1.8,3.1,3.1,6.8,3.9c-0.1,0.2-0.2,0.3-0.3,0.5
				c-2.2,2.7-4.8,3.4-6.4,3.4c-1,0-1.8,0.8-1.8,1.8v0.1c0,0,0.7,1.8,1.7,1.8c0.1,0,0.3,0,0.4,0c2.1,0,5.5-0.8,8.8-4.9
				c0.5-0.6,0.9-1.3,1.3-2c0.3,0,0.6,0.1,1.1,0.1v0c-0.2,0.9-0.2,1.9-0.2,2.8c0,7.2,1.7,13.6,5.1,19c3.1,5,7.6,9.1,13.3,12.2
				l2.3,12.2c0.4,2,2.1,3.4,4.2,3.4h8.1c2,0.1,3.8-1.4,4.2-3.4l1.2-6.3c2.5,0.3,5,0.4,7.6,0.4c3.6,0,7.1-0.2,10.6-0.7l1.3,6.6
				c0.4,2,4.2,3.6,4.2,3.6h8.1c0,0,3.8-1.6,4.2-3.6l2.4-12.9c6.9-3.6,12.1-8.4,15.4-14.2c0.2-0.4,0.6-0.7,1-0.9l7.8-2.5
				c2.7-0.9,4.5-3.4,4.6-6.2v-8.1C124,71.4,122.2,68.9,119.4,68.1z M103,47.6c-0.7,5.7-2.4,10.5-4.2,11.5c-2,1.2-6.7,1.4-10.3-1.2
				c-3.5-2.6-4.7-7.2-3.4-13.4c0,0,0,0,0,0c0.1-0.6,0.6-1.2,1.2-1.4c8.6-4,13.6-5.2,15.5-5.2c0.3,0,0.5,0,0.6,0.1
				C102.9,38.5,103.7,41.8,103,47.6z M10.3,66.7c-0.2-0.4,0.2-1,0.5-1.4c0.4-0.6,0.8-0.7,1.1-0.7c0.1,0,0.1,0,0.2,0
				c0.8,0.1,1.9,1,2.5,2.4c0.1,0.3,0.3,0.9,0.4,1.6C12.5,68.3,10.7,67.6,10.3,66.7z"/>
		</g>
	</g>
	<g>
	</g>
	<g>
	</g>
	<g>
	</g>
	<g>
	</g>
	<g>
	</g>
	<g>
	</g>
	<g>
	</g>
	<g>
	</g>
	<g>
	</g>
	<g>
	</g>
	<g>
	</g>
	<g>
	</g>
	<g>
	</g>
	<g>
	</g>
	<g>
	</g>
</g>
</svg>
