<?xml version="1.0" encoding="utf-8"?>
<!-- Generator: Adobe Illustrator 21.1.0, SVG Export Plug-In . SVG Version: 6.00 Build 0)  -->
<svg version="1.1" id="Layer_1" xmlns="http://www.w3.org/2000/svg" xmlns:xlink="http://www.w3.org/1999/xlink" x="0px" y="0px"
	 viewBox="0 0 512 512" style="enable-background:new 0 0 512 512;" xml:space="preserve">
<g>
	<g>
		<path d="M437,75C388.7,26.6,324.4,0,256,0S123.3,26.6,75,75C26.6,123.3,0,187.6,0,256s26.6,132.7,75,181
			c48.4,48.4,112.6,75,181,75s132.7-26.6,181-75c48.4-48.4,75-112.6,75-181S485.4,123.3,437,75z M256,495.8
			C123.8,495.8,16.2,388.2,16.2,256S123.8,16.2,256,16.2S495.8,123.8,495.8,256S388.2,495.8,256,495.8z"/>
	</g>
</g>
<g>
	<path d="M338.5,178c-6.6,0-12-5.4-12-12v-24c0-6.6,5.4-12,12-12h24c6.6,0,11.9,5.4,11.9,12v24c0,6.6-5.4,12-11.9,12H338.5z
		 M338.5,178"/>
	<path d="M254.5,204.3c-8.7,0-16.8,2.5-23.7,6.7c2.2-0.6,4.4-1.1,6.8-1.1c12.8,0,23.2,10.4,23.2,23.2c0,12.8-10.4,23.2-23.2,23.2
		c-12.8,0-23.2-10.4-23.2-23.2c0-2.4,0.5-4.6,1.1-6.8c-4.2,6.9-6.7,15-6.7,23.7c0,25.3,20.4,45.8,45.7,45.8
		c25.3,0,45.8-20.4,45.8-45.8C300.3,224.7,279.8,204.3,254.5,204.3L254.5,204.3z M254.5,204.3"/>
	<path d="M254.5,178c39.8,0,72,32.2,72,71.9c0,39.8-32.2,72-72,72c-39.7,0-71.9-32.2-71.9-72C182.5,210.2,214.7,178,254.5,178
		 M254.5,154c-52.9,0-96,43.1-96,96c0,53,43.1,96,96,96c53,0,96-43.1,96-96C350.5,197.1,307.4,154,254.5,154L254.5,154z M254.5,154"
		/>
	<path d="M352,94H157c-32.3,0-58.5,26.2-58.5,58.5v195c0,32.4,26.2,58.5,58.5,58.5h195c32.4,0,58.5-26.2,58.5-58.5v-195
		C410.5,120.2,384.3,94,352,94L352,94z M386.5,202H308c11.5,12.8,18.5,29.5,18.5,48c0,39.8-32.2,72-72,72c-39.7,0-71.9-32.2-71.9-72
		c0-18.5,7-35.2,18.4-48h-78.4v-49.5c0-19,15.5-34.4,34.4-34.4h195c19,0,34.5,15.5,34.5,34.4V202z M386.5,202"/>
</g>
</svg>
