<?xml version="1.0" encoding="utf-8"?>
<!-- Generator: Adobe Illustrator 21.0.2, SVG Export Plug-In . SVG Version: 6.00 Build 0)  -->
<svg version="1.1" id="Layer_1" xmlns="http://www.w3.org/2000/svg" xmlns:xlink="http://www.w3.org/1999/xlink" x="0px" y="0px"
	 viewBox="0 0 512 512" style="enable-background:new 0 0 512 512;" xml:space="preserve">
<g>
	<g>
		<path d="M437,75C388.7,26.6,324.4,0,256,0S123.3,26.6,75,75C26.6,123.3,0,187.6,0,256s26.6,132.7,75,181
			c48.4,48.4,112.6,75,181,75s132.7-26.6,181-75c48.4-48.4,75-112.6,75-181S485.4,123.3,437,75z M256,495.8
			C123.8,495.8,16.2,388.2,16.2,256S123.8,16.2,256,16.2S495.8,123.8,495.8,256S388.2,495.8,256,495.8z"/>
	</g>
</g>
<g>
	<g>
		<path d="M180.5,204.8h-53.9c-4.5,0-8.1,3.6-8.1,8.1v161.7c0,4.5,3.6,8.1,8.1,8.1h53.9c4.5,0,8.1-3.6,8.1-8.1V212.9
			C188.6,208.4,185,204.8,180.5,204.8z M172.5,366.5h-37.7V221h37.7V366.5z"/>
	</g>
</g>
<g>
	<g>
		<path d="M148.2,107.8c-22.3,0-40.4,18.1-40.4,40.4s18.1,40.4,40.4,40.4s40.4-18.1,40.4-40.4S170.5,107.8,148.2,107.8z
			 M148.2,172.5c-13.4,0-24.3-10.9-24.3-24.3c0-13.4,10.9-24.3,24.3-24.3c13.4,0,24.3,10.9,24.3,24.3
			C172.5,161.6,161.6,172.5,148.2,172.5z"/>
	</g>
</g>
<g>
	<g>
		<path d="M331.5,204.8c-16.1,0-31.9,4.2-45.8,11.9v-3.8c0-4.5-3.6-8.1-8.1-8.1h-43.1c-4.5,0-8.1,3.6-8.1,8.1v161.7
			c0,4.5,3.6,8.1,8.1,8.1h53.9c4.5,0,8.1-3.6,8.1-8.1v-58c0-19,4.2-41.7,24.3-41.7c15,0,21.1,12.6,23.2,26.9c0.6,3.9,4,6.8,8,6.8
			c5,0,8.7-4.5,8-9.4c-4.1-26-17.8-40.5-39.2-40.5c-25.7,0-40.4,21.1-40.4,57.8v50h-37.7V221h26.9v10.6c0,2.5,1,5,3,6.5
			c3,2.4,7.2,2.3,10.1,0c14-11.2,30.9-17.2,48.8-17.2c46.5,0,67.4,39.2,67.4,78.1v67.4h-37.7v-26.6c0-4.5,0.4-40.2-4.1-40.2l-4.3-3
			c-4.5,0-7.7-3.1-7.7,1.3v76.6c0,4.5,3.6,8.1,8.1,8.1h53.9c4.5,0,8.1-3.6,8.1-8.1v-75.5C415,243.6,380.6,204.8,331.5,204.8z"/>
	</g>
</g>
<path d="M237,213h35l6,13c0,0,39.5-24.1,58.2-21.1S404,250,403,256s0,112,0,112l-42,6l-9-30l-3-59l-28.3-16l-21.7,4l-12,20.7
	l-1,47.3v33h-49V213z"/>
<polygon points="129.3,216 176.7,216 179,371 129.3,375.3 "/>
<path d="M125.7,125c0,0,28.3-9.7,32-7.7c3.7,2,15,16,15,16l1.3,28.3l-4.7,11.3l-12.7,4.7l-24-2l-12.3-21L125.7,125z"/>
</svg>
